Coordinates
version=1
nRows=29
nColumns=24
inDegrees=yes

Units are S.I. units (second, meters, Newtons, ...)
Angles are in degrees.

endheader
time	pelvis_tilt	pelvis_list	pelvis_rotation	pelvis_tx	pelvis_ty	pelvis_tz	hip_flexion_r	hip_adduction_r	hip_rotation_r	knee_angle_r	ankle_angle_r	subtalar_angle_r	mtp_angle_r	hip_flexion_l	hip_adduction_l	hip_rotation_l	knee_angle_l	ankle_angle_l	subtalar_angle_l	mtp_angle_l	lumbar_extension	lumbar_bending	lumbar_rotation
      0.83733333	      3.39614768	     -1.65606075	      0.70930333	     -0.19236166	      1.04627318	      0.29781111	    -15.87639292	      4.31619490	     -2.18807014	     -9.96517167	     21.39994111	      1.20734630	      5.83468764	     22.39327002	     -2.35394602	     -0.74711793	     -7.28408249	      7.18985575	      9.75852179	      4.46187223	    -18.22765713	      4.96360280	      2.37716660
      0.84150000	      3.41611279	     -1.61379201	      0.68466778	     -0.18654313	      1.04537467	      0.29743250	    -16.04925847	      4.23064725	     -2.25770050	    -10.39892264	     21.61168700	      1.36050272	      5.82253360	     22.47312399	     -2.21156048	     -0.53085016	     -7.81377317	      7.07899133	      9.64535664	      4.51508151	    -18.19165830	      4.85220870	      2.35347455
      0.84566667	      3.44314233	     -1.55711553	      0.64931110	     -0.18070789	      1.04453565	      0.29708115	    -16.21826419	      4.12754883	     -2.30157322	    -10.85942734	     21.80838990	      1.48372135	      5.82317964	     22.54194265	     -2.05970879	     -0.31432211	     -8.39768955	      6.94898447	      9.53394811	      4.56147551	    -18.17352544	      4.70851522	      2.33158490
      0.84983333	      3.44421718	     -1.50298902	      0.61549946	     -0.17481997	      1.04369230	      0.29668852	    -16.34639231	      4.02058645	     -2.39040626	    -11.35023156	     21.97030793	      1.67236710	      5.83523342	     22.65026046	     -1.90854121	     -0.11431771	     -9.05784536	      6.75826513	      9.36150298	      4.62573447	    -18.09628534	      4.58410601	      2.31511061
      0.85400000	      3.46371849	     -1.44107030	      0.57569555	     -0.16892239	      1.04293259	      0.29631185	    -16.48456443	      3.90399138	     -2.45227713	    -11.86323599	     22.10944365	      1.82283070	      5.86169049	     22.73637375	     -1.75380435	      0.08880930	     -9.76037767	      6.55538942	      9.18431231	      4.69299897	    -18.05290578	      4.43580295	      2.30161357
      0.85816667	      3.46257956	     -1.37444199	      0.52494323	     -0.16300349	      1.04219101	      0.29594584	    -16.58350218	      3.77786606	     -2.49684517	    -12.41318701	     22.22103798	      1.95495917	      5.89934787	     22.84520283	     -1.59872872	      0.29093228	    -10.50609979	      6.33707418	      9.00337637	      4.75009987	    -17.98779490	      4.27349455	      2.29133136
      0.86233333	      3.44566400	     -1.31150924	      0.47518679	     -0.15705315	      1.04146656	      0.29556415	    -16.65051879	      3.65223069	     -2.55205315	    -12.99551371	     22.29270755	      2.09616709	      5.95125780	     22.97695847	     -1.44881097	      0.48799460	    -11.29893132	      6.09494268	      8.78657450	      4.80323507	    -17.89117240	      4.12193808	      2.28731408
      0.86650000	      3.43354165	     -1.24611447	      0.42088585	     -0.15108235	      1.04081169	      0.29515756	    -16.70932059	      3.51610160	     -2.61103772	    -13.60473642	     22.33087582	      2.26147361	      6.02473384	     23.10245971	     -1.29797841	      0.68325319	    -12.12067373	      5.83635616	      8.54008097	      4.85558461	    -17.80188791	      3.96740523	      2.28851249
      0.87066667	      3.40573430	     -1.18777559	      0.36533380	     -0.14509134	      1.04017530	      0.29474437	    -16.73192438	      3.38393323	     -2.66942534	    -14.25411271	     22.32987451	      2.41856995	      6.11734499	     23.24858715	     -1.15751377	      0.87629145	    -12.97445506	      5.57657494	      8.27980383	      4.90146650	    -17.68535565	      3.81871736	      2.29218999
      0.87483333	      3.39028058	     -1.11120252	      0.29632266	     -0.13907114	      1.03963431	      0.29434050	    -16.75030618	      3.22362437	     -2.73422870	    -14.94086709	     22.29694164	      2.59947512	      6.23661864	     23.36867842	     -1.00542226	      1.05327507	    -13.82953905	      5.30599645	      7.98873140	      4.94047688	    -17.58886324	      3.64195220	      2.29979349
      0.87900000	      3.36520221	     -1.04843649	      0.23026680	     -0.13304306	      1.03912226	      0.29389682	    -16.73556475	      3.07103370	     -2.80933821	    -15.67109069	     22.21831067	      2.78741829	      6.38032947	     23.50409096	     -0.86767421	      1.22706547	    -14.70886434	      5.05438594	      7.69670523	      4.97029349	    -17.47212862	      3.48608669	      2.31159796
      0.88316667	      3.33733956	     -0.97908749	      0.16149947	     -0.12698357	      1.03866755	      0.29344590	    -16.69764291	      2.90405540	     -2.90451981	    -16.44217413	     22.10887251	      3.00831841	      6.57883994	     23.63475643	     -0.72665475	      1.39148428	    -15.59067007	      4.80394578	      7.37756529	      4.99244416	    -17.34683485	      3.32166861	      2.33131622
      0.88733333	      3.32187632	     -0.90308332	      0.07982288	     -0.12091851	      1.03829994	      0.29300174	    -16.64821303	      2.72034103	     -2.99017025	    -17.26060409	     21.94112813	      3.22881591	      6.79572802	     23.74043843	     -0.58725951	      1.53398782	    -16.46294818	      4.58274131	      7.08095349	      5.00037633	    -17.24952433	      3.14137936	      2.34986588
      0.89150000	      3.29819150	     -0.82723885	     -0.00533577	     -0.11482948	      1.03799253	      0.29253516	    -16.56367368	      2.52623662	     -3.09620163	    -18.12783790	     21.72800203	      3.47220476	      7.04241207	     23.84336426	     -0.45138121	      1.65988146	    -17.32286033	      4.38029913	      6.77941611	      4.99435390	    -17.12790765	      2.96595855	      2.37355179
      0.89566667	      3.32816354	     -0.73232917	     -0.08683581	     -0.10874858	      1.03783333	      0.29203576	    -16.51652734	      2.30309867	     -3.22379719	    -19.02410211	     21.40892253	      3.63190007	     11.02786715	     23.86085922	     -0.28999494	      1.82074030	    -18.13429384	      4.17361503	      6.38421342	      4.76187099	    -17.07702831	      2.77566625	      2.34660036
      0.89983333	      3.31350213	     -0.66630123	     -0.17789449	     -0.10263675	      1.03766490	      0.29155179	    -16.38995835	      2.10153690	     -3.34990949	    -19.98229286	     21.06653359	      3.92298690	     11.08290605	     23.93966158	     -0.17951429	      1.86609987	    -18.98284897	      4.06658270	      6.22272292	      4.74737949	    -16.97032501	      2.60554550	      2.41604227
      0.90400000	      3.31784377	     -0.57629716	     -0.27765594	     -0.09653002	      1.03759488	      0.29104835	    -16.24579443	      1.85813917	     -3.50675536	    -21.01385755	     20.72904578	      4.24269431	     11.19621129	     23.96402361	     -0.04270178	      1.92900818	    -19.76833930	      3.95578223	      5.97454202	      4.71728716	    -16.88458975	      2.40874427	      2.45870033
      0.90816667	      3.33007088	     -0.49377890	     -0.36841610	     -0.09045780	      1.03757975	      0.29048858	    -16.06911161	      1.60966327	     -3.71171340	    -22.12036460	     20.38676570	      4.58930263	     11.42811407	     23.96473274	      0.09211576	      2.00425034	    -20.51974423	      3.86380350	      5.71481211	      4.65810555	    -16.81373174	      2.24447365	      2.50799485
      0.91233333	      3.35748491	     -0.39232177	     -0.47123190	     -0.08435063	      1.03769932	      0.28995456	    -15.89450104	      1.33223570	     -3.88788027	    -23.23199647	     19.83130150	      4.86289025	     14.76039843	     23.90954127	      0.24230075	      2.07131526	    -21.20559190	      3.81382124	      5.43269352	      3.81726636	    -16.75870597	      2.04371941	      2.51529017
      0.91650000	      3.37239154	     -0.29779865	     -0.57726964	     -0.07825768	      1.03783465	      0.28942019	    -15.66166514	      1.04935734	     -4.08738427	    -24.43318473	     19.33426061	      5.21321798	     14.83180040	     23.86144542	      0.37220954	      2.06103975	    -21.87780215	      3.82577531	      5.30096200	      3.79923869	    -16.68322859	      1.84636014	      2.56765137
      0.92066667	      3.41133570	     -0.19391378	     -0.68037571	     -0.07220050	      1.03806529	      0.28886130	    -15.42071623	      0.74436614	     -4.30826259	    -25.68705829	     18.79183882	      5.59948295	     14.99288642	     23.75828027	      0.51767645	      2.06773798	    -22.49154529	      3.84988372	      5.10832421	      3.76005587	    -16.64564900	      1.63967219	      2.61139879
      0.92483333	      3.44451145	     -0.08267534	     -0.79358509	     -0.06613599	      1.03838318	      0.28834231	    -15.14712015	      0.42668893	     -4.48952297	    -26.97441084	     18.12428596	      5.93469367	     15.15056665	     23.62160538	      0.66376339	      2.06369533	    -23.02774855	      3.91182963	      4.96626105	      3.72350597	    -16.59751024	      1.40722618	      2.62566145
      0.92900000	      3.50652308	      0.03770361	     -0.90332066	     -0.06014516	      1.03877654	      0.28775171	    -14.85583195	      0.07300826	     -4.73859800	    -28.33604274	     17.42440424	      6.28306892	     18.76342754	     23.43593941	      0.82918577	      2.05430514	    -23.52657864	      3.98553782	      4.71981040	      2.87002362	    -16.59092601	      1.20904921	      2.65165044
      0.93316667	      3.55797983	      0.15933576	     -1.00584783	     -0.05416107	      1.03919826	      0.28719290	    -14.52430221	     -0.27996722	     -4.97128361	    -29.74846149	     16.71719444	      6.63434291	     18.82522301	     23.24248978	      0.98813562	      2.00859433	    -23.98489504	      4.12549952	      4.62014708	      2.85596313	    -16.56728706	      0.98165127	      2.68653239
      0.93733333	      3.60593204	      0.29156922	     -1.11844989	     -0.04822351	      1.03968044	      0.28663761	    -14.15033035	     -0.65823400	     -5.19019730	    -31.21414534	     15.96324412	      6.99933448	     18.95041490	     23.01980404	      1.15935969	      1.97042669	    -24.37465592	      4.26585556	      4.46893427	      2.82745124	    -16.54737446	      0.74603581	      2.71105317
      0.94150000	      3.65542436	      0.43527177	     -1.23497736	     -0.04232729	      1.04022467	      0.28609655	    -13.74150932	     -1.05652158	     -5.40021617	    -32.72774737	     15.15757526	      7.34031220	     19.12960744	     22.76580598	      1.34295703	      1.92703091	    -24.70252751	      4.42364210	      4.31178212	      2.78725360	    -16.53325076	      0.49476061	      2.72980242
      0.94566667	      3.73104436	      0.59481676	     -1.36367339	     -0.03650339	      1.04086227	      0.28556800	    -13.32623277	     -1.47914094	     -5.56956201	    -34.27469311	     14.25105333	      7.55589943	     21.46020494	     22.43996754	      1.55577421	      1.94951121	    -24.94002176	      4.58992709	      3.99076361	      2.22737455	    -16.56303405	      0.20715640	      2.79533074
      0.94983333	      3.76136892	      0.72175464	     -1.46769381	     -0.03070288	      1.04143698	      0.28504319	    -12.83530447	     -1.86320505	     -5.75031615	    -35.85787257	     13.35483839	      7.87145257	     21.53873859	     22.18910165	      1.71310304	      1.84126843	    -25.22435592	      4.84303214	      4.00473927	      2.21057605	    -16.53059264	     -0.00381374	      2.74414582
      0.95400000	      3.81237978	      0.87770796	     -1.59195864	     -0.02497399	      1.04210636	      0.28455732	    -12.32780915	     -2.28580402	     -5.89635057	    -37.48339983	     12.43193676	      8.10442802	     21.65670627	     21.87079396	      1.90846937	      1.78139495	    -25.41360351	      5.06590802	      3.86555321	      2.17836604	    -16.53179968	     -0.26903239	      2.74360048
